<?xml version="1.0" encoding="utf-8"?>
<!-- Generator: Adobe Illustrator 26.4.1, SVG Export Plug-In . SVG Version: 6.00 Build 0)  -->
<svg version="1.1" id="Calque_1" xmlns="http://www.w3.org/2000/svg" xmlns:xlink="http://www.w3.org/1999/xlink" x="0px" y="0px"
	 viewBox="0 0 31.88 32" style="enable-background:new 0 0 31.88 32;" xml:space="preserve">
<style type="text/css">
	.st0{fill:#1769BB;}
	.st1{fill:#44BCD7;}
	.st2{fill:#4B8BD4;}
</style>
<path class="st0" d="M31.88,9.9c-2.17,0-4.17,0-6.2,0c-0.87,0-1.76,0-2.63-0.06c-0.36-0.02-0.75-0.12-1.05-0.3
	c-6.91-4.3-16.15,0.28-16.82,8.41c-0.36,4.36,1.38,7.84,5,10.33c0.34,0.24,0.71,0.45,1.05,0.69c0,0.04-0.02,0.1-0.02,0.14
	c-0.87,0-1.72,0-2.59,0c-1.82,0-3.65,0-5.47-0.04c-1.9-0.04-3.1-1.26-3.1-3.16c-0.02-4.78-0.02-9.54,0-14.32
	c0-1.94,1.28-3.24,3.2-3.3c1.58-0.06,3.18-0.04,4.76,0c1.34,0.02,1.74-0.24,2.21-1.46c0.34-0.91,0.73-1.82,1.13-2.71
	c0.38-0.83,1.05-1.22,1.97-1.22c1.92,0,3.87,0.02,5.79,0.02c0.99,0,1.62,0.45,2.01,1.32c0.43,1.01,0.87,2.05,1.28,3.06
	c0.32,0.81,0.67,1.01,1.56,0.99c1.74-0.02,3.5-0.02,5.25-0.02C30.38,8.22,31.21,8.79,31.88,9.9z"/>
<path class="st1" d="M22.27,26.17c-2.59,2.13-5.53,2.8-8.79,1.94c-3.81-0.99-6.54-4.15-6.99-8.16c-0.36-3.36,0.59-6.28,3.32-8.43
	c-0.38,1.05-0.95,2.07-1.2,3.16c-1.48,6.36,2.84,10.45,7.19,11.22c0.53,0.1,1.07,0.1,1.6,0.12c1.44,0.02,2.86,0,4.3,0
	c0.18,0,0.38,0,0.57,0C22.27,26.07,22.27,26.13,22.27,26.17z"/>
<path class="st2" d="M6.19,7.15c-0.51,0-0.99,0-1.5,0c-0.63,0-0.89-0.3-0.89-0.93c0-0.65,0.24-0.97,0.85-0.99
	c1.03-0.02,2.07-0.02,3.1,0c0.67,0.02,0.89,0.3,0.89,1.05C8.6,6.9,8.36,7.15,7.73,7.15C7.22,7.17,6.69,7.15,6.19,7.15z"/>
</svg>
